# xmcd
#
# Track frame offsets: 
#        150
#        24522
#        44857
#
# Disc length: 874 seconds
#
# Revision: 0
# Processed by: cddbd v1.5PL3 Copyright (c) Steve Scherf et al.
# Submitted via: ExactAudioCopy v0.95a4
#
DISCID=23036803
DTITLE=shame - LOVE
DYEAR=2001
DGENRE=Rock
TTITLE0=LOVE
TTITLE1=hate
TTITLE2=for
EXTD=
EXTT0=
EXTT1=
EXTT2=
PLAYORDER=
